<svg xmlns="http://www.w3.org/2000/svg" xmlns:xlink="http://www.w3.org/1999/xlink" viewBox="0 0 532.02 518.48">
	<defs>
		<style>
			.cls-1 {
				stroke: #fff;
				stroke-miterlimit: 10;
				stroke-width: 19px;
				fill: url(#linear-gradient);
			}

			.cls-2 {
				isolation: isolate;
				font-size: 141px;
				font-family: 'Baloo-Regular';
			}

			.cls-2, .cls-3 {
				fill: #fff;
			}
		</style>
		<linearGradient id="linear-gradient" x1="265.54" y1="619.14" x2="265.54" y2="119.66" gradientTransform="matrix(1, 0, 0, -1, 0, 628.64)" gradientUnits="userSpaceOnUse">
			<stop offset="0" stop-color="#f9bc0f"/>
			<stop offset="0" stop-color="#faa21d"/>
			<stop offset="0.06" stop-color="#f19724"/>
			<stop offset="0.38" stop-color="#c36049"/>
			<stop offset="0.65" stop-color="#a23863"/>
			<stop offset="0.87" stop-color="#8d2073"/>
			<stop offset="1" stop-color="#861779"/>
		</linearGradient>
	</defs>
	<g id="Layer_2" data-name="Layer 2">
		<g id="Layer_1-2" data-name="Layer 1">
			<ellipse class="cls-1" cx="265.54" cy="259.24" rx="256.04" ry="249.74"/>
			<text class="cls-2" transform="translate(54.15 258.82)">JENGU</text>
			<g>
				<path class="cls-3" d="M37.15,332.08c13.69,7.52,29.38,5.73,42-3.07,11.76-8.22,21.7-19.95,37-20.91,17.19-1.08,33,10,47.64,17.37,14.15,7.06,30.69,11.95,46.54,8.4,16.54-3.7,27.07-17.72,41.71-25.08,7.74-3.89,16.5-5.8,24.81-2.55,6.81,2.66,12.16,8,17.76,12.49a66.47,66.47,0,0,0,40.58,14.93c16.47.43,30.74-5,45.12-12.52,8.48-4.42,17-8.91,26.46-10.87,10.42-2.16,19.17-.17,28.36,4.86a86.18,86.18,0,0,0,54,10.21c1.27-.18-4.45-8.87-4.89-9.46-1.46-1.93-4.86-7.51-7.74-7.31l-6.35.43c-1.15.08,4.45,8.87,4.89,9.46,1.46,1.93,4.86,7.51,7.74,7.31l6.35-.43-12.64-16.77a82.33,82.33,0,0,1-49.53-8.42c-7.5-3.92-14-7.54-22.72-7.66-8.28-.12-16.34,2.27-23.86,5.58-15.11,6.67-28.56,15.86-45.28,18.16-15.11,2.07-31.66-.46-44.52-9-12-8-21.53-20.78-37.45-19.38-17,1.49-28.34,15.8-42.19,23.94-15.08,8.85-32.52,7.42-48.38,1.43-15.57-5.88-29.17-16.48-45.46-20.55-8-2-16.56-2-24.31,1.14-7.47,3.07-13.58,8.51-19.79,13.52S60.27,317,52.48,319a36.75,36.75,0,0,1-26.75-3.68c-1.89-1,2.44,6.85,2.66,7.18,2.28,3.38,5.08,7.56,8.76,9.58Z"/>
				<path class="cls-3" d="M94.14,358.13c12.87,7.43,27.73,5.77,39.56-2.82,11.21-8.15,20.7-20.35,35.61-21.14,16.08-.85,30.67,9.77,44.2,17s29.41,12.42,44.78,8.89c15.61-3.59,25.27-17,38.73-24.54,7.12-4,15.41-6.38,23.39-3.57,6.76,2.38,11.9,7.75,17.23,12.3,11.14,9.52,24.2,15.07,38.94,15.59,15.91.56,29.58-5,43.29-12.52,7.93-4.36,15.95-8.82,24.86-10.8,10-2.23,18.37-.2,27.1,4.83,15.74,9.07,33.19,12.88,51.25,10.23,1.28-.19-4.45-8.87-4.89-9.46-1.45-1.93-4.86-7.52-7.74-7.31l-6,.43c-1.15.08,4.45,8.87,4.89,9.46,1.45,1.93,4.86,7.52,7.74,7.31l6-.43-12.64-16.77a74.67,74.67,0,0,1-47-8.44c-7-3.85-13.1-7.52-21.31-7.67-8-.14-15.8,2.25-23,5.62-14.55,6.78-27.37,16.05-43.68,18.21-14.67,1.94-30.59-1-42.59-10-11-8.2-20.38-20.54-35.65-18.39-16.07,2.26-26.31,16.36-39.5,24.22-14.26,8.5-30.85,6.83-45.72.79-14.66-5.95-27.39-16.46-42.88-20.43-7.61-1.95-15.68-1.93-23,1.25-6.92,3-12.55,8.23-18.22,13.08-6,5.1-12.31,10.13-20.07,12.13a33.39,33.39,0,0,1-25.14-3.75c-1.84-1.06,2.43,6.84,2.66,7.18,2.33,3.42,5.11,7.44,8.77,9.56Z"/>
				<path class="cls-3" d="M60.63,391.44c12.87,7.43,27.73,5.77,39.56-2.82,11.21-8.15,20.7-20.35,35.61-21.14,16.08-.85,30.67,9.77,44.2,17s29.41,12.42,44.78,8.89c15.61-3.59,25.27-17,38.73-24.54,7.12-4,15.41-6.38,23.39-3.57,6.76,2.38,11.9,7.75,17.23,12.3,11.14,9.52,24.2,15.07,38.94,15.59,15.91.56,29.58-5,43.29-12.52,7.93-4.36,15.95-8.82,24.86-10.8,10-2.23,18.37-.2,27.1,4.83,15.74,9.07,33.19,12.88,51.25,10.23,1.28-.19-4.45-8.87-4.89-9.46-1.45-1.93-4.86-7.52-7.74-7.31l-6,.43c-1.15.08,4.45,8.87,4.89,9.46,1.45,1.93,4.86,7.52,7.74,7.31l6-.43L476.93,368.1a74.67,74.67,0,0,1-47-8.44c-7-3.85-13.1-7.52-21.31-7.67-8-.14-15.8,2.25-23,5.62-14.55,6.78-27.37,16.05-43.68,18.21-14.67,1.94-30.59-1-42.59-10-11-8.2-20.38-20.54-35.65-18.39-16.07,2.26-26.31,16.36-39.5,24.22-14.26,8.5-30.85,6.83-45.72.79C163.82,366.47,151.09,356,135.6,352c-7.61-1.95-15.68-1.93-23,1.25-6.92,3-12.55,8.23-18.22,13.08-6,5.1-12.31,10.13-20.07,12.13A33.39,33.39,0,0,1,49.2,374.7c-1.84-1.06,2.43,6.84,2.66,7.18,2.33,3.41,5.1,7.44,8.77,9.56Z"/>
				<path class="cls-3" d="M39.56,424.49c12.87,7.43,27.73,5.77,39.56-2.82,11.21-8.15,20.7-20.35,35.61-21.14,16.08-.85,30.67,9.77,44.2,17s29.41,12.42,44.78,8.89c15.61-3.59,25.27-17,38.73-24.54,7.12-4,15.41-6.38,23.39-3.57,6.76,2.38,11.9,7.75,17.23,12.3,11.14,9.52,24.2,15.07,38.94,15.59,15.91.56,29.58-5,43.29-12.52,7.93-4.36,15.95-8.82,24.86-10.8,10-2.23,18.37-.2,27.1,4.83,15.74,9.07,33.19,12.88,51.25,10.23,1.28-.19-4.45-8.87-4.89-9.46-1.45-1.93-4.86-7.52-7.74-7.31l-6,.43c-1.15.08,4.45,8.87,4.89,9.46,1.45,1.93,4.86,7.52,7.74,7.31l6-.43-12.64-16.77a74.67,74.67,0,0,1-47-8.44c-7-3.85-13.1-7.52-21.31-7.67-8-.14-15.8,2.25-23,5.62-14.55,6.78-27.37,16-43.68,18.21-14.67,1.94-30.59-1-42.59-10-11-8.2-20.38-20.54-35.65-18.39-16.07,2.26-26.31,16.36-39.5,24.22-14.26,8.5-30.85,6.83-45.72.79C142.75,399.52,130,389,114.53,385c-7.61-2-15.68-1.93-23,1.25-6.92,3-12.55,8.23-18.22,13.08-6,5.1-12.31,10.13-20.07,12.13a33.39,33.39,0,0,1-25.14-3.75c-1.84-1.06,2.43,6.84,2.66,7.18,2.33,3.41,5.1,7.44,8.77,9.56Z"/>
				<path class="cls-3" d="M88.63,427.33c16.08-.85,30.67,9.77,44.2,17s29.41,12.42,44.78,8.89c15.61-3.59,25.27-17,38.73-24.54,7.12-4,15.41-6.38,23.39-3.57,6.76,2.38,11.9,7.75,17.23,12.3,11.14,9.52,24.2,15.07,38.94,15.59,15.91.56,29.58-5,43.29-12.52,7.93-4.36,15.95-8.82,24.86-10.8,10-2.23,18.37-.2,27.1,4.83,15.74,9.07,33.19,12.88,51.25,10.23,1.28-.19-4.45-8.87-4.89-9.46-1.45-1.93-4.86-7.52-7.74-7.31l-6,.43c-1.15.08,4.45,8.87,4.89,9.46,1.45,1.93,4.86,7.52,7.74,7.31l6-.43L429.76,428a74.67,74.67,0,0,1-47-8.44c-7-3.85-13.1-7.52-21.31-7.67-8-.14-15.8,2.25-23,5.62-14.55,6.78-27.37,16.05-43.68,18.21-14.67,1.94-30.59-1-42.59-10-11-8.2-20.38-20.54-35.65-18.39-16.07,2.26-26.31,16.36-39.5,24.22-14.26,8.5-30.85,6.83-45.72.79-14.66-5.95-27.39-16.46-42.88-20.43-7.61-1.95-15.68-1.93-23,1.25"/>
				<path class="cls-3" d="M412.18,457.22c-14.55,6.78-27.37,16-43.68,18.21-14.67,1.94-30.59-1-42.59-10-11-8.2-20.38-20.54-35.65-18.39-16.07,2.26-26.31,16.36-39.5,24.22-14.26,8.5-30.85,6.83-45.72.79-14.66-5.95-27.39-16.46-42.88-20.43-7.61-2-15.68-1.93-23,1.25-6.92,3-12.55,8.23-18.22,13.08-6,5.1,1.49,9.59-6.27,11.59-8.62,2.22-3.6,8.5-11.24,4.09-1.84-1.06,2.43,6.84,2.66,7.18,2.33,3.42,7.88-.77,11.54,1.34h3.48c12.87,7.43-6.22,6.69,5.61-1.9,11.21-8.15,20.7-20.35,35.61-21.14,16.08-.85,30.67,9.77,44.2,17S236,496.49,251.34,493c15.61-3.59,25.27-17,38.73-24.54,7.12-4,15.41-6.38,23.39-3.57,6.76,2.38,11.9,7.75,17.23,12.3,11.14,9.52,24.2,15.07,38.94,15.59"/>
			</g>
		</g>
	</g>
</svg>
