<svg xmlns="http://www.w3.org/2000/svg" xmlns:xlink="http://www.w3.org/1999/xlink" viewBox="0 0 577 577"><defs><style>.cls-1,.cls-5,.cls-6{fill:none;}.cls-2{clip-path:url(#clip-path);}.cls-3,.cls-5,.cls-6{stroke:#fff;stroke-miterlimit:10;}.cls-3{stroke-width:19px;fill:url(#linear-gradient);}.cls-4{fill:#fff;}.cls-5{stroke-width:32px;}</style><clipPath id="clip-path"><rect class="cls-1" x="17.17" y="42.77" width="539" height="495"/></clipPath><linearGradient id="linear-gradient" x1="287.09" y1="40.55" x2="287.09" y2="540.03" gradientUnits="userSpaceOnUse"><stop offset="0" stop-color="#f9bc0f"/><stop offset="0" stop-color="#faa21d"/><stop offset="0.06" stop-color="#f19724"/><stop offset="0.38" stop-color="#c36049"/><stop offset="0.65" stop-color="#a23863"/><stop offset="0.87" stop-color="#8e2073"/><stop offset="1" stop-color="#861779"/></linearGradient></defs><g id="Layer_2" data-name="Layer 2"><g class="cls-2"><ellipse class="cls-3" cx="287.09" cy="290.29" rx="256.04" ry="249.74"/><path class="cls-4" d="M98.37,201.43c1-.19,2.68-.45,4.94-.78a46.11,46.11,0,0,1,6.48-.49,30.08,30.08,0,0,1,5.71.49,10.1,10.1,0,0,1,4.16,1.77,7.55,7.55,0,0,1,2.54,3.52,17.31,17.31,0,0,1,.85,5.92V264q0,12.56-7.19,18.83t-21.15,6.27q-7.33,0-11.85-2.25a10.28,10.28,0,0,1-4.72-4.23,12.32,12.32,0,0,1-1.48-6.07,14.46,14.46,0,0,1,.77-4.93,10.47,10.47,0,0,1,1.91-3.39c1.78.38,3.31.64,4.58.78a38,38,0,0,0,4.16.21c3.66,0,6.3-.92,7.89-2.75s2.4-4.53,2.4-8.11Z"/><path class="cls-4" d="M141,214.54q0-6.06,3.53-9.59t9.58-3.52H200.6a17.48,17.48,0,0,1,1.76,4.09,18.47,18.47,0,0,1,.77,5.36q0,5.35-2.32,7.61a8.43,8.43,0,0,1-6.14,2.26H164.92v13.11h31.73a18.21,18.21,0,0,1,2.53,9.31q0,5.36-2.25,7.61a8.23,8.23,0,0,1-6.06,2.26h-26v14.8h36.24a17.07,17.07,0,0,1,1.76,4.09,18.14,18.14,0,0,1,.78,5.36q0,5.35-2.33,7.68a8.3,8.3,0,0,1-6.13,2.33H154.06q-6.06,0-9.58-3.53T141,274.19Z"/><path class="cls-4" d="M295.63,283.91a12.93,12.93,0,0,1-5.71,3,33.44,33.44,0,0,1-9,1.05,30.82,30.82,0,0,1-9.87-1.55q-4.65-1.54-7.61-7.47l-14-28.48q-2.11-4.37-3.81-8.25c-1.12-2.59-2.35-5.57-3.66-8.95l-.85.14q.57,7.6.64,15.51t.07,15.51v21.85a39.23,39.23,0,0,1-4.73.85,47.74,47.74,0,0,1-6.27.42,32.14,32.14,0,0,1-5.5-.42,8.44,8.44,0,0,1-3.95-1.69,8.27,8.27,0,0,1-2.4-3.46,16.2,16.2,0,0,1-.84-5.71V205.8a11.75,11.75,0,0,1,6.06-4.23,26.65,26.65,0,0,1,8.74-1.41,30.42,30.42,0,0,1,9.94,1.62q4.72,1.62,7.55,7.4l14.1,28.49q2.11,4.37,3.8,8.25t3.67,9l.71-.14q-.57-7.62-.71-15.23t-.14-15.23V201.43a41.09,41.09,0,0,1,4.72-.85,47.89,47.89,0,0,1,6.28-.42q6.19,0,9.44,2.19c2.17,1.45,3.25,4.49,3.25,9.09Z"/><path class="cls-4" d="M391.36,272.92c0,2.91-.51,5.07-1.55,6.48a16,16,0,0,1-4.93,4.09,30.93,30.93,0,0,1-4.94,2.19,54.64,54.64,0,0,1-6.48,1.83,68.47,68.47,0,0,1-7.4,1.2,71.46,71.46,0,0,1-7.69.42,63.77,63.77,0,0,1-19-2.75,43.09,43.09,0,0,1-15.44-8.32,39.37,39.37,0,0,1-10.37-13.89,50.85,50.85,0,0,1,.36-39.48,42.39,42.39,0,0,1,11-14.31,46.22,46.22,0,0,1,15.65-8.53A59.14,59.14,0,0,1,358.65,199q13.39,0,21.22,4.3t7.83,11.21a11,11,0,0,1-1.83,6.35,15.46,15.46,0,0,1-4.23,4.23,58,58,0,0,0-8.82-4.16,32.84,32.84,0,0,0-11.91-2.05q-11.85,0-18.82,6.77t-7,18.75a29.85,29.85,0,0,0,1.9,11.21,21.26,21.26,0,0,0,5.15,7.76,21,21,0,0,0,7.47,4.51,27,27,0,0,0,9,1.48,24.5,24.5,0,0,0,5.5-.56,15,15,0,0,0,3.67-1.27V254.3H352.73a22,22,0,0,1-1.62-4.08,18.19,18.19,0,0,1-.78-5.36q0-5.09,2.33-7.33a8.23,8.23,0,0,1,6-2.26h23.83a8.09,8.09,0,0,1,8.88,8.88Z"/><path class="cls-4" d="M483.29,255.29a36,36,0,0,1-2.6,13.89,29.46,29.46,0,0,1-7.55,10.72,33.89,33.89,0,0,1-12,6.83,54.1,54.1,0,0,1-31.87,0,33.89,33.89,0,0,1-12-6.83,29.46,29.46,0,0,1-7.55-10.72,35.81,35.81,0,0,1-2.61-13.89V201.43c1-.19,2.68-.45,4.94-.78a46.36,46.36,0,0,1,6.49-.49,30.16,30.16,0,0,1,5.71.49,10.15,10.15,0,0,1,4.16,1.77,7.61,7.61,0,0,1,2.53,3.52,17.06,17.06,0,0,1,.85,5.92v43q0,6.76,3.74,10.57a14.23,14.23,0,0,0,19.38,0q3.68-3.79,3.67-10.57V201.43c1-.19,2.68-.45,4.93-.78a46.36,46.36,0,0,1,6.49-.49,30.16,30.16,0,0,1,5.71.49,10.15,10.15,0,0,1,4.16,1.77,7.62,7.62,0,0,1,2.54,3.52,17.33,17.33,0,0,1,.84,5.92Z"/><ellipse class="cls-5" cx="286.67" cy="288.5" rx="279.62" ry="272.74"/><path class="cls-4" d="M59.2,378.2c18.19,9.46,38.94,7,55.72-4.13,16.07-10.65,29.66-25.13,50.23-25.63,22.14-.53,42.38,12.76,61.72,21.75s41.61,14.83,62.73,9.69,35.39-22.81,54.88-31.35c10-4.38,21-6.18,31.5-2.28,9.12,3.39,16.38,10.14,24,15.88,15.68,11.74,34.17,17.59,53.71,17.89,21.7.34,40.63-6.82,59.84-16.21,11.41-5.58,23-11.06,35.66-13.14,12.86-2.12,23.88.38,35.3,6.26a119.51,119.51,0,0,0,71.28,12.7c1.26-.17-4.45-8.87-4.89-9.46-1.46-1.94-4.85-7.5-7.75-7.31l-8.38.53c-1.14.07,4.45,8.87,4.89,9.46,1.47,1.94,4.85,7.5,7.75,7.31l8.38-.53-12.64-16.77a114.67,114.67,0,0,1-65.6-10.38c-9.55-4.7-18.13-9.18-29-9.44s-21.74,2.58-31.83,6.72c-20.25,8.29-38.39,19.88-60.54,22.67-19.56,2.47-40.59-.45-57.78-10.53-16.57-9.72-29.17-26.35-50.32-24.54-21.72,1.86-36.8,19-54.77,29.14-19.78,11.18-42.48,9.89-63.44,2.78-20.75-7-39-20.29-60.41-25.62-10.78-2.68-22.23-2.91-32.74,1.06-9.71,3.67-17.83,10.32-26,16.52-8.63,6.53-17.66,12.67-28.41,15a51.47,51.47,0,0,1-34.51-4.76c-2-1,2.44,6.86,2.66,7.18,2.25,3.31,5.09,7.65,8.77,9.56Z"/><path class="cls-4" d="M134.45,410.35c17.15,9.38,36.86,7,52.62-3.9,14.88-10.31,27.49-24.84,46.83-25.78,20.93-1,40.15,12,58.11,20.94,17.63,8.79,37.92,15.05,57.75,11.26,20.86-4,34.19-20.91,52.22-30.46,9.33-4.94,20.11-8,30.52-4.81,8.88,2.68,15.83,9,22.86,14.76,14.79,12.05,31.77,19.07,50.95,19.88,20.35.86,38.41-5.32,56.3-14.5,11-5.63,21.95-11.52,34.1-14.17,13-2.84,24.31-.82,35.9,5.45,21.15,11.42,44.21,16.32,68.16,13,1.26-.18-4.45-8.87-4.9-9.46-1.45-1.93-4.85-7.5-7.74-7.31l-8,.53c-1.14.08,4.45,8.87,4.9,9.46,1.46,1.94,4.85,7.5,7.74,7.31l8-.53-12.64-16.77a104.31,104.31,0,0,1-62.24-10.4c-9.42-4.87-17.77-9.41-28.67-9.47s-21.16,3.14-30.88,7.5c-19.44,8.7-36.83,20-58.52,22.21-19.07,1.95-39.55-1.88-55.34-13.16-14.74-10.52-27.33-25.24-47.32-21.9-20.55,3.44-34.11,20.65-51.63,30.16-19,10.33-41,7.82-60.56.26C273.76,383,256.75,370,236.46,365.35c-10.18-2.34-20.83-2.06-30.49,2.15C197,371.4,189.61,377.94,182,384c-7.76,6.16-16,12-25.77,14.32A46.69,46.69,0,0,1,123,393.61c-1.9-1,2.44,6.86,2.66,7.18,2.29,3.36,5.09,7.55,8.76,9.56Z"/><path class="cls-4" d="M90.18,451.52c18.65,10.2,39.11,6.2,55.58-6,7.8-5.8,15-12.58,23.43-17.43a45.64,45.64,0,0,1,30.38-5.58c22.26,3.6,40.63,18.31,61.35,26.16,20.55,7.79,43.58,9.74,63.14-1.75,18.11-10.65,34.77-31.46,57.92-29.34,10,.92,18,6.9,25.57,13.08,8.24,6.74,16.62,13.11,26.4,17.49a71,71,0,0,0,58.24-.69c7-3.32,12.77-8.92,19.06-13.3,5.87-4.09,13.6-9.12,21.13-7.21,4,1,6.87,4.19,11.17,4.65,4.1.43,8.17-.7,12-2,4.41-1.45,8.72-3.29,13.27-4.24,5.5-1.16,9.74-.07,14.75,2.34,11.83,5.7,22.63,11.6,35.66,14.32a108.61,108.61,0,0,0,37.24,1.14c1.27-.18-4.45-8.87-4.89-9.46-1.46-1.94-4.86-7.51-7.75-7.31l-8,.53c-1.14.07,4.46,8.87,4.9,9.46,1.46,1.93,4.85,7.5,7.74,7.31l8-.53-12.64-16.77c-23.6,3.29-46.14-1.73-67-12.95-4.26-2.3-8.71-5-13.62-5.39-4.06-.35-8.06.63-11.9,1.86-6.74,2.14-15.21,6.88-22.4,4.22-3.41-1.26-5.82-3.72-9.58-4.26a20.25,20.25,0,0,0-10.14,1.43c-7.58,2.94-13.94,8.49-20.38,13.28-15.21,11.32-36.08,15.4-54.54,10.88a77.72,77.72,0,0,1-28-13.73c-7.93-6-15.07-13.1-24.07-17.51-21-10.31-41,4-57.25,16.38C316.67,427,308,433.17,297.7,436.12c-10.91,3.13-22.47,2.65-33.46.22-22.25-4.93-40.56-18.71-61.63-26.62-10.73-4-22.47-6.24-33.8-3.47-10.6,2.59-19.26,9.4-27.6,16.1S124.14,436.12,113.53,439a46.69,46.69,0,0,1-34.78-4.26c-1.9-1,2.44,6.85,2.66,7.18,2.29,3.36,5.09,7.55,8.77,9.56Z"/><path class="cls-4" d="M64.38,493.32c8.9,5.21,18.71.31,26.76-4.27a299.77,299.77,0,0,1,31.36-15.56,336.56,336.56,0,0,1,34.62-12.95c11.29-3.4,22.52-1.61,33.31,2.67,23.26,9.23,42.38,26.56,67.12,32.4,11.17,2.63,23.11,3.1,34.17-.32,11.49-3.56,20.76-11.3,29.7-19,9.41-8.15,19-16.71,31.07-20.67,12.28-4,23.39-.76,33.14,7.21,8.41,6.87,15.52,15.26,25,20.81a52.71,52.71,0,0,0,27.61,7c23.83-.23,47.1-11.69,68.36-21.3,5.59-2.52,11.75-4.74,15.94-9.08,2.19-2.27,5.85-3.63,8.77-4.47,13.15-3.76,28.47,2.92,40.29,8.35,6.27,2.87,11.83,7.06,17.94,10.23a97.91,97.91,0,0,0,19.41,7.57,99.78,99.78,0,0,0,41.66,2.16c1.29-.21-4.45-8.87-4.9-9.46-1.44-1.92-4.87-7.53-7.74-7.31l-8.24.61c-1.16.09,4.45,8.87,4.9,9.46,1.44,1.92,4.86,7.52,7.74,7.31l8.24-.61-12.64-16.77a96.33,96.33,0,0,1-38.77-1.69c-12.72-3.22-23.22-9.49-34.49-15.89-9.83-5.58-22.22-10.38-33.5-11.57-6.41-.68-15-.1-20.19,4.27a15.45,15.45,0,0,0-1.46,1.81c-1.63,1.7-3.88,2.71-6,3.77-19.19,9.73-40,19.1-61.09,23.74-10.3,2.27-21.07,3.1-31.34.27-10.93-3-18.67-10.07-26.79-17.58-7.47-6.9-15.72-14.44-25.93-16.78-12.07-2.77-24.05,2.33-33.86,9.05-10.18,7-18.64,16.12-28.71,23.24-9.59,6.79-20.35,10.77-32.16,11-25.9.51-47.21-14.75-68.83-26.75-11.2-6.21-23.37-12-36.41-12.33s-26.21,5.83-38.16,10.57S96.08,462,85,468.49c-9.16,5.36-21.27,14.37-32,8.08-1.81-1.06,2.44,6.84,2.66,7.18,2.34,3.44,5.11,7.42,8.77,9.57Z"/><path class="cls-4" d="M27.85,524.49c18,9.86,38.23,6.56,54.4-5.17,14.44-10.48,28.67-26.17,48.25-24.2,18,1.8,32,16.6,47.54,24.42,16.35,8.23,36.1,10.63,54.19,9.11,9-.74,17.82-2.69,25.87-6.8,9.17-4.69,17-11.49,25.24-17.56,8.51-6.27,18-12,28.67-13.52s20.08,2.62,28.46,9c7.59,5.8,14.48,12.46,23.08,16.8A65.61,65.61,0,0,0,391,523.1a108.11,108.11,0,0,0,29.16-3.27c10.17-2.48,19.78-6.61,29.83-9.48,6.26-1.8,12.58-3.35,18.75-5.44,5.72-1.94,11.2-4.49,17-6.13,12.7-3.57,25.21-3.36,37.08,2.69,11.41,5.82,22.25,11.16,34.93,13.69a108.68,108.68,0,0,0,36.38,1c1.27-.18-4.45-8.87-4.89-9.46-1.46-1.94-4.86-7.51-7.75-7.32l-7.95.53c-1.15.08,4.45,8.88,4.89,9.46,1.46,1.94,4.85,7.51,7.74,7.32l8-.53-12.64-16.78a105.74,105.74,0,0,1-65.38-12.09c-9.65-5.21-18.79-8.44-29.92-7.63-11.35.83-21.17,5.63-31.83,9.07s-21.6,6.15-32.23,9.95a132.06,132.06,0,0,1-28.91,7,79.52,79.52,0,0,1-29.72-1.55c-9.83-2.58-17.66-7.79-25.43-14.16-7.16-5.88-14.59-12.24-23.63-15-9.61-2.9-19.76-.9-28.68,3.27-18.53,8.64-31.73,25.91-52,31.27-17.89,4.72-38.09,3.38-55.65-2.1-17.85-5.57-31-19.3-48.13-26.23a38.44,38.44,0,0,0-27.27-.88C93,483.66,85.06,490.37,77.16,496.7c-8.08,6.49-16.52,12.89-26.73,15.51a46.7,46.7,0,0,1-34-4.46c-1.89-1,2.44,6.85,2.66,7.17,2.29,3.37,5.09,7.56,8.77,9.57Z"/><path class="cls-4" d="M110.72,561.57c17.14,9.37,36.86,7,52.62-3.91,14.65-10.15,27.07-24.43,46-25.72,21.21-1.43,40.77,11.83,58.92,20.88,17.65,8.8,37.91,15,57.76,11.27,20.67-3.93,33.53-20.7,51.47-29.91,9.14-4.69,19.71-7.31,29.88-4.76,9.25,2.32,16.63,8.31,24,14.06,15.16,11.88,31.78,19.16,51.22,20,20.71.87,38.94-5.57,57.11-14.91,10.95-5.64,22-11.46,34.16-13.95,12.71-2.6,23.74-.47,35,5.64,21.13,11.43,44.22,16.32,68.16,13,1.26-.17-4.45-8.86-4.9-9.46-1.46-1.93-4.85-7.5-7.74-7.31l-8,.53c-1.14.08,4.45,8.88,4.9,9.46,1.45,1.94,4.85,7.51,7.74,7.31l8-.53L664.4,536.43A104.16,104.16,0,0,1,602.16,526c-9.43-4.88-17.77-9.41-28.68-9.47-10.74-.06-21.16,3.14-30.87,7.5-19.16,8.6-36.38,19.77-57.73,22.13-19.06,2.1-39.6-1.54-55.52-12.64-15.24-10.62-28.46-24.6-48.75-21.46-20.66,3.19-33.88,20.38-51.54,29.68-18.84,9.93-40.61,7.3-59.83-.14s-36.22-20.4-56.51-25.07c-10.16-2.33-20.85-2.07-30.49,2.16-8.94,3.92-16.36,10.43-23.93,16.44-8,6.34-16.42,12.27-26.55,14.49a46.7,46.7,0,0,1-32.47-4.83c-1.89-1,2.44,6.86,2.66,7.18,2.29,3.37,5.1,7.56,8.77,9.57Z"/><rect class="cls-6" x="-8.83" y="-0.23" width="611" height="577"/></g></g></svg>